<mxfile host="Electron" modified="2024-03-29T02:52:55.637Z" agent="Mozilla/5.0 (Windows NT 10.0; Win64; x64) AppleWebKit/537.36 (KHTML, like Gecko) draw.io/24.1.0 Chrome/120.0.6099.109 Electron/28.1.0 Safari/537.36" etag="tjS3io3g3JWvgL54rM-U" version="24.1.0" type="device">
  <diagram name="Page-1" id="LbiL-ViiE3Ngqwq_KXWn">
    <mxGraphModel dx="1400" dy="2087" grid="1" gridSize="10" guides="1" tooltips="1" connect="1" arrows="1" fold="1" page="1" pageScale="1" pageWidth="1600" pageHeight="1200" math="0" shadow="0">
      <root>
        <mxCell id="0" />
        <mxCell id="1" parent="0" />
        <mxCell id="XOTfRUJzOYHc899-o0_s-183" value="" style="group" vertex="1" connectable="0" parent="1">
          <mxGeometry x="450" y="350" width="320" height="60" as="geometry" />
        </mxCell>
        <object label="Sub Project Site 5B" nodeType="subProject" subProjectName="Sub Project Site 5B" id="XOTfRUJzOYHc899-o0_s-184">
          <mxCell style="rounded=1;whiteSpace=wrap;html=1;fillColor=#f5f5f5;fontColor=#333333;strokeColor=#666666;fontStyle=1;spacingLeft=50;" vertex="1" parent="XOTfRUJzOYHc899-o0_s-183">
            <mxGeometry width="320" height="60" as="geometry" />
          </mxCell>
        </object>
        <mxCell id="XOTfRUJzOYHc899-o0_s-185" value="" style="shape=mxgraph.signs.travel.museum;html=1;pointerEvents=1;fillColor=#000000;strokeColor=none;verticalLabelPosition=bottom;verticalAlign=top;align=center;sketch=0;" vertex="1" parent="XOTfRUJzOYHc899-o0_s-183">
          <mxGeometry x="20" y="20" width="10" height="10" as="geometry" />
        </mxCell>
        <mxCell id="XOTfRUJzOYHc899-o0_s-186" value="" style="shape=mxgraph.signs.travel.museum;html=1;pointerEvents=1;fillColor=#000000;strokeColor=none;verticalLabelPosition=bottom;verticalAlign=top;align=center;sketch=0;" vertex="1" parent="XOTfRUJzOYHc899-o0_s-183">
          <mxGeometry x="10" y="30" width="10" height="10" as="geometry" />
        </mxCell>
        <mxCell id="XOTfRUJzOYHc899-o0_s-187" value="" style="shape=mxgraph.signs.travel.museum;html=1;pointerEvents=1;fillColor=#000000;strokeColor=none;verticalLabelPosition=bottom;verticalAlign=top;align=center;sketch=0;" vertex="1" parent="XOTfRUJzOYHc899-o0_s-183">
          <mxGeometry x="30" y="30" width="10" height="10" as="geometry" />
        </mxCell>
        <mxCell id="XOTfRUJzOYHc899-o0_s-189" value="" style="group" vertex="1" connectable="0" parent="1">
          <mxGeometry x="100" y="210" width="320" height="60" as="geometry" />
        </mxCell>
        <object label="Big Project Phase 1" nodeType="project" projectName="Big Project Phase 1" id="XOTfRUJzOYHc899-o0_s-190">
          <mxCell style="rounded=1;whiteSpace=wrap;html=1;fillColor=#dae8fc;strokeColor=#6c8ebf;fontStyle=1;spacingLeft=50;" vertex="1" parent="XOTfRUJzOYHc899-o0_s-189">
            <mxGeometry width="320" height="60" as="geometry" />
          </mxCell>
        </object>
        <mxCell id="XOTfRUJzOYHc899-o0_s-191" value="" style="shape=mxgraph.signs.travel.museum;html=1;pointerEvents=1;fillColor=#000000;strokeColor=none;verticalLabelPosition=bottom;verticalAlign=top;align=center;sketch=0;" vertex="1" parent="XOTfRUJzOYHc899-o0_s-189">
          <mxGeometry x="10" y="15" width="30" height="30" as="geometry" />
        </mxCell>
        <mxCell id="XOTfRUJzOYHc899-o0_s-194" style="edgeStyle=orthogonalEdgeStyle;rounded=0;orthogonalLoop=1;jettySize=auto;html=1;exitX=0.5;exitY=1;exitDx=0;exitDy=0;entryX=0;entryY=0.5;entryDx=0;entryDy=0;" edge="1" parent="1" source="XOTfRUJzOYHc899-o0_s-190" target="XOTfRUJzOYHc899-o0_s-184">
          <mxGeometry relative="1" as="geometry" />
        </mxCell>
        <mxCell id="XOTfRUJzOYHc899-o0_s-217" value="" style="group" vertex="1" connectable="0" parent="1">
          <mxGeometry x="920" y="440" width="320" height="60" as="geometry" />
        </mxCell>
        <object label="01 GENERAL" nodeType="bidItemGroup" bidItemGroupDescription="GENERAL" bidItemGroupNumber="01" id="XOTfRUJzOYHc899-o0_s-218">
          <mxCell style="rounded=1;whiteSpace=wrap;html=1;fillColor=#d5e8d4;strokeColor=#82b366;fontStyle=1;spacingLeft=50;" vertex="1" parent="XOTfRUJzOYHc899-o0_s-217">
            <mxGeometry width="320" height="60" as="geometry" />
          </mxCell>
        </object>
        <mxCell id="XOTfRUJzOYHc899-o0_s-219" value="" style="verticalLabelPosition=bottom;verticalAlign=top;html=1;shape=mxgraph.basic.rect;fillColor2=none;strokeWidth=1;size=20;indent=5;fillColor=none;" vertex="1" parent="XOTfRUJzOYHc899-o0_s-217">
          <mxGeometry x="10" y="15" width="40" height="10" as="geometry" />
        </mxCell>
        <mxCell id="XOTfRUJzOYHc899-o0_s-220" value="" style="shape=mxgraph.signs.travel.cashier;html=1;pointerEvents=1;fillColor=#000000;strokeColor=none;verticalLabelPosition=bottom;verticalAlign=top;align=center;sketch=0;" vertex="1" parent="XOTfRUJzOYHc899-o0_s-217">
          <mxGeometry x="10" y="15" width="10" height="10" as="geometry" />
        </mxCell>
        <mxCell id="XOTfRUJzOYHc899-o0_s-221" value="" style="verticalLabelPosition=bottom;verticalAlign=top;html=1;shape=mxgraph.basic.rect;fillColor2=none;strokeWidth=1;size=20;indent=5;fillColor=none;" vertex="1" parent="XOTfRUJzOYHc899-o0_s-217">
          <mxGeometry x="10" y="25" width="40" height="10" as="geometry" />
        </mxCell>
        <mxCell id="XOTfRUJzOYHc899-o0_s-222" value="" style="shape=mxgraph.signs.travel.cashier;html=1;pointerEvents=1;fillColor=#000000;strokeColor=none;verticalLabelPosition=bottom;verticalAlign=top;align=center;sketch=0;" vertex="1" parent="XOTfRUJzOYHc899-o0_s-217">
          <mxGeometry x="10" y="25" width="10" height="10" as="geometry" />
        </mxCell>
        <mxCell id="XOTfRUJzOYHc899-o0_s-223" value="" style="verticalLabelPosition=bottom;verticalAlign=top;html=1;shape=mxgraph.basic.rect;fillColor2=none;strokeWidth=1;size=20;indent=5;fillColor=none;" vertex="1" parent="XOTfRUJzOYHc899-o0_s-217">
          <mxGeometry x="10" y="35" width="40" height="10" as="geometry" />
        </mxCell>
        <mxCell id="XOTfRUJzOYHc899-o0_s-224" value="" style="shape=mxgraph.signs.travel.cashier;html=1;pointerEvents=1;fillColor=#000000;strokeColor=none;verticalLabelPosition=bottom;verticalAlign=top;align=center;sketch=0;" vertex="1" parent="XOTfRUJzOYHc899-o0_s-217">
          <mxGeometry x="10" y="35" width="10" height="10" as="geometry" />
        </mxCell>
        <mxCell id="XOTfRUJzOYHc899-o0_s-225" style="edgeStyle=orthogonalEdgeStyle;rounded=0;orthogonalLoop=1;jettySize=auto;html=1;exitX=0.5;exitY=1;exitDx=0;exitDy=0;entryX=0;entryY=0.5;entryDx=0;entryDy=0;" edge="1" parent="1" source="XOTfRUJzOYHc899-o0_s-184" target="XOTfRUJzOYHc899-o0_s-218">
          <mxGeometry relative="1" as="geometry" />
        </mxCell>
        <mxCell id="XOTfRUJzOYHc899-o0_s-226" value="" style="group" vertex="1" connectable="0" parent="1">
          <mxGeometry x="940" y="1040" width="320" height="60" as="geometry" />
        </mxCell>
        <object label="31 EARTHWORKS" nodeType="bidItemGroup" bidItemGroupDescription="EARTHWORKS" bidItemGroupNumber="31" id="XOTfRUJzOYHc899-o0_s-227">
          <mxCell style="rounded=1;whiteSpace=wrap;html=1;fillColor=#d5e8d4;strokeColor=#82b366;fontStyle=1;spacingLeft=50;" vertex="1" parent="XOTfRUJzOYHc899-o0_s-226">
            <mxGeometry width="320" height="60" as="geometry" />
          </mxCell>
        </object>
        <mxCell id="XOTfRUJzOYHc899-o0_s-228" value="" style="verticalLabelPosition=bottom;verticalAlign=top;html=1;shape=mxgraph.basic.rect;fillColor2=none;strokeWidth=1;size=20;indent=5;fillColor=none;" vertex="1" parent="XOTfRUJzOYHc899-o0_s-226">
          <mxGeometry x="10" y="15" width="40" height="10" as="geometry" />
        </mxCell>
        <mxCell id="XOTfRUJzOYHc899-o0_s-229" value="" style="shape=mxgraph.signs.travel.cashier;html=1;pointerEvents=1;fillColor=#000000;strokeColor=none;verticalLabelPosition=bottom;verticalAlign=top;align=center;sketch=0;" vertex="1" parent="XOTfRUJzOYHc899-o0_s-226">
          <mxGeometry x="10" y="15" width="10" height="10" as="geometry" />
        </mxCell>
        <mxCell id="XOTfRUJzOYHc899-o0_s-230" value="" style="verticalLabelPosition=bottom;verticalAlign=top;html=1;shape=mxgraph.basic.rect;fillColor2=none;strokeWidth=1;size=20;indent=5;fillColor=none;" vertex="1" parent="XOTfRUJzOYHc899-o0_s-226">
          <mxGeometry x="10" y="25" width="40" height="10" as="geometry" />
        </mxCell>
        <mxCell id="XOTfRUJzOYHc899-o0_s-231" value="" style="shape=mxgraph.signs.travel.cashier;html=1;pointerEvents=1;fillColor=#000000;strokeColor=none;verticalLabelPosition=bottom;verticalAlign=top;align=center;sketch=0;" vertex="1" parent="XOTfRUJzOYHc899-o0_s-226">
          <mxGeometry x="10" y="25" width="10" height="10" as="geometry" />
        </mxCell>
        <mxCell id="XOTfRUJzOYHc899-o0_s-232" value="" style="verticalLabelPosition=bottom;verticalAlign=top;html=1;shape=mxgraph.basic.rect;fillColor2=none;strokeWidth=1;size=20;indent=5;fillColor=none;" vertex="1" parent="XOTfRUJzOYHc899-o0_s-226">
          <mxGeometry x="10" y="35" width="40" height="10" as="geometry" />
        </mxCell>
        <mxCell id="XOTfRUJzOYHc899-o0_s-233" value="" style="shape=mxgraph.signs.travel.cashier;html=1;pointerEvents=1;fillColor=#000000;strokeColor=none;verticalLabelPosition=bottom;verticalAlign=top;align=center;sketch=0;" vertex="1" parent="XOTfRUJzOYHc899-o0_s-226">
          <mxGeometry x="10" y="35" width="10" height="10" as="geometry" />
        </mxCell>
        <mxCell id="XOTfRUJzOYHc899-o0_s-234" style="edgeStyle=orthogonalEdgeStyle;rounded=0;orthogonalLoop=1;jettySize=auto;html=1;exitX=0.5;exitY=1;exitDx=0;exitDy=0;entryX=0;entryY=0.5;entryDx=0;entryDy=0;" edge="1" parent="1" source="XOTfRUJzOYHc899-o0_s-184" target="XOTfRUJzOYHc899-o0_s-227">
          <mxGeometry relative="1" as="geometry" />
        </mxCell>
        <mxCell id="XOTfRUJzOYHc899-o0_s-237" value="" style="group" vertex="1" connectable="0" parent="1">
          <mxGeometry x="920" y="1729" width="320" height="60" as="geometry" />
        </mxCell>
        <object label="33 UTILITIES" nodeType="bidItemGroup" bidItemGroupDescription="UTILITIES" bidItemGroupNumber="33" id="XOTfRUJzOYHc899-o0_s-238">
          <mxCell style="rounded=1;whiteSpace=wrap;html=1;fillColor=#d5e8d4;strokeColor=#82b366;fontStyle=1;spacingLeft=50;" vertex="1" parent="XOTfRUJzOYHc899-o0_s-237">
            <mxGeometry width="320" height="60" as="geometry" />
          </mxCell>
        </object>
        <mxCell id="XOTfRUJzOYHc899-o0_s-239" value="" style="verticalLabelPosition=bottom;verticalAlign=top;html=1;shape=mxgraph.basic.rect;fillColor2=none;strokeWidth=1;size=20;indent=5;fillColor=none;" vertex="1" parent="XOTfRUJzOYHc899-o0_s-237">
          <mxGeometry x="10" y="15" width="40" height="10" as="geometry" />
        </mxCell>
        <mxCell id="XOTfRUJzOYHc899-o0_s-240" value="" style="shape=mxgraph.signs.travel.cashier;html=1;pointerEvents=1;fillColor=#000000;strokeColor=none;verticalLabelPosition=bottom;verticalAlign=top;align=center;sketch=0;" vertex="1" parent="XOTfRUJzOYHc899-o0_s-237">
          <mxGeometry x="10" y="15" width="10" height="10" as="geometry" />
        </mxCell>
        <mxCell id="XOTfRUJzOYHc899-o0_s-241" value="" style="verticalLabelPosition=bottom;verticalAlign=top;html=1;shape=mxgraph.basic.rect;fillColor2=none;strokeWidth=1;size=20;indent=5;fillColor=none;" vertex="1" parent="XOTfRUJzOYHc899-o0_s-237">
          <mxGeometry x="10" y="25" width="40" height="10" as="geometry" />
        </mxCell>
        <mxCell id="XOTfRUJzOYHc899-o0_s-242" value="" style="shape=mxgraph.signs.travel.cashier;html=1;pointerEvents=1;fillColor=#000000;strokeColor=none;verticalLabelPosition=bottom;verticalAlign=top;align=center;sketch=0;" vertex="1" parent="XOTfRUJzOYHc899-o0_s-237">
          <mxGeometry x="10" y="25" width="10" height="10" as="geometry" />
        </mxCell>
        <mxCell id="XOTfRUJzOYHc899-o0_s-243" value="" style="verticalLabelPosition=bottom;verticalAlign=top;html=1;shape=mxgraph.basic.rect;fillColor2=none;strokeWidth=1;size=20;indent=5;fillColor=none;" vertex="1" parent="XOTfRUJzOYHc899-o0_s-237">
          <mxGeometry x="10" y="35" width="40" height="10" as="geometry" />
        </mxCell>
        <mxCell id="XOTfRUJzOYHc899-o0_s-244" value="" style="shape=mxgraph.signs.travel.cashier;html=1;pointerEvents=1;fillColor=#000000;strokeColor=none;verticalLabelPosition=bottom;verticalAlign=top;align=center;sketch=0;" vertex="1" parent="XOTfRUJzOYHc899-o0_s-237">
          <mxGeometry x="10" y="35" width="10" height="10" as="geometry" />
        </mxCell>
        <mxCell id="XOTfRUJzOYHc899-o0_s-245" value="" style="group" vertex="1" connectable="0" parent="1">
          <mxGeometry x="940" y="1540" width="320" height="60" as="geometry" />
        </mxCell>
        <object label="32 ROADS AND SITE IMPROVEMENTS" nodeType="bidItemGroup" bidItemGroupDescription="ROADS AND SITE IMPROVEMENTS" bidItemGroupNumber="32" id="XOTfRUJzOYHc899-o0_s-246">
          <mxCell style="rounded=1;whiteSpace=wrap;html=1;fillColor=#d5e8d4;strokeColor=#82b366;fontStyle=1;spacingLeft=50;" vertex="1" parent="XOTfRUJzOYHc899-o0_s-245">
            <mxGeometry width="320" height="60" as="geometry" />
          </mxCell>
        </object>
        <mxCell id="XOTfRUJzOYHc899-o0_s-247" value="" style="verticalLabelPosition=bottom;verticalAlign=top;html=1;shape=mxgraph.basic.rect;fillColor2=none;strokeWidth=1;size=20;indent=5;fillColor=none;" vertex="1" parent="XOTfRUJzOYHc899-o0_s-245">
          <mxGeometry x="10" y="15" width="40" height="10" as="geometry" />
        </mxCell>
        <mxCell id="XOTfRUJzOYHc899-o0_s-248" value="" style="shape=mxgraph.signs.travel.cashier;html=1;pointerEvents=1;fillColor=#000000;strokeColor=none;verticalLabelPosition=bottom;verticalAlign=top;align=center;sketch=0;" vertex="1" parent="XOTfRUJzOYHc899-o0_s-245">
          <mxGeometry x="10" y="15" width="10" height="10" as="geometry" />
        </mxCell>
        <mxCell id="XOTfRUJzOYHc899-o0_s-249" value="" style="verticalLabelPosition=bottom;verticalAlign=top;html=1;shape=mxgraph.basic.rect;fillColor2=none;strokeWidth=1;size=20;indent=5;fillColor=none;" vertex="1" parent="XOTfRUJzOYHc899-o0_s-245">
          <mxGeometry x="10" y="25" width="40" height="10" as="geometry" />
        </mxCell>
        <mxCell id="XOTfRUJzOYHc899-o0_s-250" value="" style="shape=mxgraph.signs.travel.cashier;html=1;pointerEvents=1;fillColor=#000000;strokeColor=none;verticalLabelPosition=bottom;verticalAlign=top;align=center;sketch=0;" vertex="1" parent="XOTfRUJzOYHc899-o0_s-245">
          <mxGeometry x="10" y="25" width="10" height="10" as="geometry" />
        </mxCell>
        <mxCell id="XOTfRUJzOYHc899-o0_s-251" value="" style="verticalLabelPosition=bottom;verticalAlign=top;html=1;shape=mxgraph.basic.rect;fillColor2=none;strokeWidth=1;size=20;indent=5;fillColor=none;" vertex="1" parent="XOTfRUJzOYHc899-o0_s-245">
          <mxGeometry x="10" y="35" width="40" height="10" as="geometry" />
        </mxCell>
        <mxCell id="XOTfRUJzOYHc899-o0_s-252" value="" style="shape=mxgraph.signs.travel.cashier;html=1;pointerEvents=1;fillColor=#000000;strokeColor=none;verticalLabelPosition=bottom;verticalAlign=top;align=center;sketch=0;" vertex="1" parent="XOTfRUJzOYHc899-o0_s-245">
          <mxGeometry x="10" y="35" width="10" height="10" as="geometry" />
        </mxCell>
        <mxCell id="XOTfRUJzOYHc899-o0_s-253" style="edgeStyle=orthogonalEdgeStyle;rounded=0;orthogonalLoop=1;jettySize=auto;html=1;exitX=0.5;exitY=1;exitDx=0;exitDy=0;entryX=0;entryY=0.5;entryDx=0;entryDy=0;" edge="1" parent="1" source="XOTfRUJzOYHc899-o0_s-184" target="XOTfRUJzOYHc899-o0_s-246">
          <mxGeometry relative="1" as="geometry" />
        </mxCell>
        <mxCell id="XOTfRUJzOYHc899-o0_s-254" style="edgeStyle=orthogonalEdgeStyle;rounded=0;orthogonalLoop=1;jettySize=auto;html=1;exitX=0.5;exitY=1;exitDx=0;exitDy=0;entryX=0;entryY=0.5;entryDx=0;entryDy=0;" edge="1" parent="1" source="XOTfRUJzOYHc899-o0_s-184" target="XOTfRUJzOYHc899-o0_s-238">
          <mxGeometry relative="1" as="geometry" />
        </mxCell>
        <mxCell id="XOTfRUJzOYHc899-o0_s-255" value="" style="group" vertex="1" connectable="0" parent="1">
          <mxGeometry x="1140" y="1170" width="320" height="60" as="geometry" />
        </mxCell>
        <object label="31.1 Common Excavation - Export and Dispose of Excess" nodeType="bidItem" itemNumber="31.0" estQuantity="4500" units="m3" takeoffQuantity="4500" description="Common Excavation - Export and Dispose of Excess" id="XOTfRUJzOYHc899-o0_s-256">
          <mxCell style="rounded=1;whiteSpace=wrap;html=1;fillColor=#fff2cc;strokeColor=#d6b656;fontStyle=1;spacingLeft=50;" vertex="1" parent="XOTfRUJzOYHc899-o0_s-255">
            <mxGeometry width="320" height="60" as="geometry" />
          </mxCell>
        </object>
        <mxCell id="XOTfRUJzOYHc899-o0_s-257" value="" style="verticalLabelPosition=bottom;verticalAlign=top;html=1;shape=mxgraph.basic.rect;fillColor2=none;strokeWidth=1;size=20;indent=5;fillColor=none;" vertex="1" parent="XOTfRUJzOYHc899-o0_s-255">
          <mxGeometry x="10" y="25" width="40" height="10" as="geometry" />
        </mxCell>
        <mxCell id="XOTfRUJzOYHc899-o0_s-258" value="" style="shape=mxgraph.signs.travel.cashier;html=1;pointerEvents=1;fillColor=#000000;strokeColor=none;verticalLabelPosition=bottom;verticalAlign=top;align=center;sketch=0;" vertex="1" parent="XOTfRUJzOYHc899-o0_s-255">
          <mxGeometry x="10" y="25" width="10" height="10" as="geometry" />
        </mxCell>
        <mxCell id="XOTfRUJzOYHc899-o0_s-259" style="edgeStyle=orthogonalEdgeStyle;rounded=0;orthogonalLoop=1;jettySize=auto;html=1;exitX=0.5;exitY=1;exitDx=0;exitDy=0;entryX=0;entryY=0.5;entryDx=0;entryDy=0;" edge="1" parent="1" source="XOTfRUJzOYHc899-o0_s-227" target="XOTfRUJzOYHc899-o0_s-256">
          <mxGeometry relative="1" as="geometry" />
        </mxCell>
        <mxCell id="XOTfRUJzOYHc899-o0_s-262" value="" style="group" vertex="1" connectable="0" parent="1">
          <mxGeometry x="1410" y="1290" width="320" height="60" as="geometry" />
        </mxCell>
        <object label="Common Excavation" nodeType="activity" activityType="earthworks" productionQuantity="4500" productionRate="75" productionQuantityUnits="m3" productionRateUnits="m3/hr" productionDurationHours="60" description="Common Excavation" id="XOTfRUJzOYHc899-o0_s-263">
          <mxCell style="rounded=1;whiteSpace=wrap;html=1;fillColor=#CC99FF;strokeColor=#9673a6;fontStyle=1;spacingLeft=50;" vertex="1" parent="XOTfRUJzOYHc899-o0_s-262">
            <mxGeometry width="320" height="60" as="geometry" />
          </mxCell>
        </object>
        <mxCell id="XOTfRUJzOYHc899-o0_s-264" value="" style="shape=mxgraph.signs.sports.rock_collection;html=1;pointerEvents=1;fillColor=#000000;strokeColor=none;verticalLabelPosition=bottom;verticalAlign=top;align=center;sketch=0;" vertex="1" parent="XOTfRUJzOYHc899-o0_s-262">
          <mxGeometry x="10" y="15" width="30" height="30" as="geometry" />
        </mxCell>
        <mxCell id="XOTfRUJzOYHc899-o0_s-265" style="edgeStyle=orthogonalEdgeStyle;rounded=0;orthogonalLoop=1;jettySize=auto;html=1;exitX=0.5;exitY=1;exitDx=0;exitDy=0;entryX=0;entryY=0.5;entryDx=0;entryDy=0;" edge="1" parent="1" source="XOTfRUJzOYHc899-o0_s-256" target="XOTfRUJzOYHc899-o0_s-263">
          <mxGeometry relative="1" as="geometry" />
        </mxCell>
        <mxCell id="XOTfRUJzOYHc899-o0_s-267" value="" style="group" vertex="1" connectable="0" parent="1">
          <mxGeometry x="1410" y="1500" width="320" height="60" as="geometry" />
        </mxCell>
        <object label="Haul Excess to Vendor Dumpsite" nodeType="activity" activityType="haul" productionQuantity="4500" productionRate="75" productionQuantityUnits="m3" productionRateUnits="m3/hr" productionDurationHours="60" description="Haul excess to vendor dumpsite" id="XOTfRUJzOYHc899-o0_s-268">
          <mxCell style="rounded=1;whiteSpace=wrap;html=1;fillColor=#CC99FF;strokeColor=#9673a6;fontStyle=1;spacingLeft=50;" vertex="1" parent="XOTfRUJzOYHc899-o0_s-267">
            <mxGeometry width="320" height="60" as="geometry" />
          </mxCell>
        </object>
        <mxCell id="XOTfRUJzOYHc899-o0_s-269" value="" style="shape=mxgraph.signs.sports.rock_collection;html=1;pointerEvents=1;fillColor=#000000;strokeColor=none;verticalLabelPosition=bottom;verticalAlign=top;align=center;sketch=0;" vertex="1" parent="XOTfRUJzOYHc899-o0_s-267">
          <mxGeometry x="10" y="15" width="30" height="30" as="geometry" />
        </mxCell>
        <mxCell id="XOTfRUJzOYHc899-o0_s-270" style="edgeStyle=orthogonalEdgeStyle;rounded=0;orthogonalLoop=1;jettySize=auto;html=1;exitX=0.5;exitY=1;exitDx=0;exitDy=0;entryX=0;entryY=0.5;entryDx=0;entryDy=0;" edge="1" parent="1" source="XOTfRUJzOYHc899-o0_s-256" target="XOTfRUJzOYHc899-o0_s-268">
          <mxGeometry relative="1" as="geometry" />
        </mxCell>
        <mxCell id="XOTfRUJzOYHc899-o0_s-284" value="" style="group" vertex="1" connectable="0" parent="1">
          <mxGeometry x="1660" y="1640" width="210" height="60" as="geometry" />
        </mxCell>
        <object label="Truck and Pup Haul" nodeType="trucking" truckType="truck and pup" hourlyRate="175" totalTrucks="4" roundTripDurationHours="1.25" totalRoundTrips="396" description="Truck and Pup Haul" id="XOTfRUJzOYHc899-o0_s-285">
          <mxCell style="rounded=1;whiteSpace=wrap;html=1;fillColor=#b0e3e6;strokeColor=#0e8088;fontStyle=1;spacingLeft=50;" vertex="1" parent="XOTfRUJzOYHc899-o0_s-284">
            <mxGeometry width="210" height="60" as="geometry" />
          </mxCell>
        </object>
        <mxCell id="XOTfRUJzOYHc899-o0_s-286" value="" style="shape=mxgraph.signs.transportation.truck_6;html=1;pointerEvents=1;fillColor=#000000;strokeColor=none;verticalLabelPosition=bottom;verticalAlign=top;align=center;sketch=0;" vertex="1" parent="XOTfRUJzOYHc899-o0_s-284">
          <mxGeometry x="10" y="20" width="20" height="20" as="geometry" />
        </mxCell>
        <mxCell id="XOTfRUJzOYHc899-o0_s-287" style="edgeStyle=orthogonalEdgeStyle;rounded=0;orthogonalLoop=1;jettySize=auto;html=1;exitX=0.5;exitY=1;exitDx=0;exitDy=0;entryX=0;entryY=0.5;entryDx=0;entryDy=0;" edge="1" parent="1" source="XOTfRUJzOYHc899-o0_s-268" target="XOTfRUJzOYHc899-o0_s-285">
          <mxGeometry relative="1" as="geometry" />
        </mxCell>
        <mxCell id="XOTfRUJzOYHc899-o0_s-288" value="" style="group" vertex="1" connectable="0" parent="1">
          <mxGeometry x="1660" y="1780" width="210" height="60" as="geometry" />
        </mxCell>
        <object label="Tipping Fees per Box" nodeType="incidentalCost" incidentalCostType="fees" vendorType="gravel pit" quantity="692" units="box" unitRate="50" subTotal="34600" tax="0" totalCost="34600" description="Tipping Fees per Box" id="XOTfRUJzOYHc899-o0_s-289">
          <mxCell style="rounded=1;whiteSpace=wrap;html=1;fillColor=#bac8d3;strokeColor=#23445d;fontStyle=1;spacingLeft=50;" vertex="1" parent="XOTfRUJzOYHc899-o0_s-288">
            <mxGeometry width="210" height="60" as="geometry" />
          </mxCell>
        </object>
        <mxCell id="XOTfRUJzOYHc899-o0_s-290" value="" style="shape=mxgraph.signs.travel.cashier;html=1;pointerEvents=1;fillColor=#000000;strokeColor=none;verticalLabelPosition=bottom;verticalAlign=top;align=center;sketch=0;" vertex="1" parent="XOTfRUJzOYHc899-o0_s-288">
          <mxGeometry x="5" y="20" width="30" height="29" as="geometry" />
        </mxCell>
        <mxCell id="XOTfRUJzOYHc899-o0_s-291" style="edgeStyle=orthogonalEdgeStyle;rounded=0;orthogonalLoop=1;jettySize=auto;html=1;exitX=0.5;exitY=1;exitDx=0;exitDy=0;entryX=0;entryY=0.5;entryDx=0;entryDy=0;" edge="1" parent="1" source="XOTfRUJzOYHc899-o0_s-268" target="XOTfRUJzOYHc899-o0_s-289">
          <mxGeometry relative="1" as="geometry" />
        </mxCell>
        <mxCell id="XOTfRUJzOYHc899-o0_s-335" value="" style="group" vertex="1" connectable="0" parent="1">
          <mxGeometry x="1660" y="1390" width="210" height="60" as="geometry" />
        </mxCell>
        <object label="ASSIGNED: Bulk&amp;nbsp;Common Ex Crew" nodeType="assignedCrew" crewDefinition="Bulk Common Ex Crew" description="Bulk Common Ex Crew" id="XOTfRUJzOYHc899-o0_s-336">
          <mxCell style="rounded=1;whiteSpace=wrap;html=1;fillColor=#ffcc99;strokeColor=#36393d;fontStyle=1;spacingLeft=50;" vertex="1" parent="XOTfRUJzOYHc899-o0_s-335">
            <mxGeometry width="210" height="60" as="geometry" />
          </mxCell>
        </object>
        <mxCell id="XOTfRUJzOYHc899-o0_s-337" value="" style="shape=mxgraph.signs.people.man_2;html=1;pointerEvents=1;fillColor=#000000;strokeColor=none;verticalLabelPosition=bottom;verticalAlign=top;align=center;sketch=0;" vertex="1" parent="XOTfRUJzOYHc899-o0_s-335">
          <mxGeometry x="30" y="25" width="10" height="20" as="geometry" />
        </mxCell>
        <mxCell id="XOTfRUJzOYHc899-o0_s-338" value="" style="shape=mxgraph.signs.sports.rv;html=1;pointerEvents=1;fillColor=#000000;strokeColor=none;verticalLabelPosition=bottom;verticalAlign=top;align=center;sketch=0;" vertex="1" parent="XOTfRUJzOYHc899-o0_s-335">
          <mxGeometry x="10" y="30" width="20" height="20" as="geometry" />
        </mxCell>
        <mxCell id="XOTfRUJzOYHc899-o0_s-339" value="" style="shape=mxgraph.signs.transportation.forklift;html=1;pointerEvents=1;fillColor=#000000;strokeColor=none;verticalLabelPosition=bottom;verticalAlign=top;align=center;sketch=0;" vertex="1" parent="XOTfRUJzOYHc899-o0_s-335">
          <mxGeometry x="10" y="10" width="20" height="15" as="geometry" />
        </mxCell>
        <mxCell id="XOTfRUJzOYHc899-o0_s-340" style="edgeStyle=orthogonalEdgeStyle;rounded=0;orthogonalLoop=1;jettySize=auto;html=1;exitX=0.5;exitY=1;exitDx=0;exitDy=0;entryX=0;entryY=0.5;entryDx=0;entryDy=0;" edge="1" parent="1" source="XOTfRUJzOYHc899-o0_s-263" target="XOTfRUJzOYHc899-o0_s-336">
          <mxGeometry relative="1" as="geometry" />
        </mxCell>
        <mxCell id="XOTfRUJzOYHc899-o0_s-407" value="" style="group" vertex="1" connectable="0" parent="1">
          <mxGeometry x="70" y="-360" width="320" height="60" as="geometry" />
        </mxCell>
        <object label="Equipment Operator" nodeType="labour" labourType="equipment" baseHourlyRate="60" description="Equipment Operator" id="XOTfRUJzOYHc899-o0_s-408">
          <mxCell style="rounded=1;whiteSpace=wrap;html=1;fillColor=#cdeb8b;strokeColor=#36393d;fontStyle=1;spacingLeft=50;" vertex="1" parent="XOTfRUJzOYHc899-o0_s-407">
            <mxGeometry width="320" height="60" as="geometry" />
          </mxCell>
        </object>
        <mxCell id="XOTfRUJzOYHc899-o0_s-409" value="" style="shape=mxgraph.signs.people.man_2;html=1;pointerEvents=1;fillColor=#000000;strokeColor=none;verticalLabelPosition=bottom;verticalAlign=top;align=center;sketch=0;" vertex="1" parent="XOTfRUJzOYHc899-o0_s-407">
          <mxGeometry x="20" y="15" width="10" height="30" as="geometry" />
        </mxCell>
        <mxCell id="XOTfRUJzOYHc899-o0_s-410" value="" style="group" vertex="1" connectable="0" parent="1">
          <mxGeometry x="70" y="-200" width="320" height="60" as="geometry" />
        </mxCell>
        <object label="Pipelayer" nodeType="labour" labourType="skilled" baseHourlyRate="60" description="Pipelayer" id="XOTfRUJzOYHc899-o0_s-411">
          <mxCell style="rounded=1;whiteSpace=wrap;html=1;fillColor=#cdeb8b;strokeColor=#36393d;fontStyle=1;spacingLeft=50;" vertex="1" parent="XOTfRUJzOYHc899-o0_s-410">
            <mxGeometry width="320" height="60" as="geometry" />
          </mxCell>
        </object>
        <mxCell id="XOTfRUJzOYHc899-o0_s-412" value="" style="shape=mxgraph.signs.people.man_2;html=1;pointerEvents=1;fillColor=#000000;strokeColor=none;verticalLabelPosition=bottom;verticalAlign=top;align=center;sketch=0;" vertex="1" parent="XOTfRUJzOYHc899-o0_s-410">
          <mxGeometry x="20" y="15" width="10" height="30" as="geometry" />
        </mxCell>
        <mxCell id="XOTfRUJzOYHc899-o0_s-413" value="" style="group" vertex="1" connectable="0" parent="1">
          <mxGeometry x="70" y="-120" width="320" height="60" as="geometry" />
        </mxCell>
        <object label="Labourer" nodeType="labour" labourType="general" baseHourlyRate="43" description="Labourer" id="XOTfRUJzOYHc899-o0_s-414">
          <mxCell style="rounded=1;whiteSpace=wrap;html=1;fillColor=#cdeb8b;strokeColor=#36393d;fontStyle=1;spacingLeft=50;" vertex="1" parent="XOTfRUJzOYHc899-o0_s-413">
            <mxGeometry width="320" height="60" as="geometry" />
          </mxCell>
        </object>
        <mxCell id="XOTfRUJzOYHc899-o0_s-415" value="" style="shape=mxgraph.signs.people.man_2;html=1;pointerEvents=1;fillColor=#000000;strokeColor=none;verticalLabelPosition=bottom;verticalAlign=top;align=center;sketch=0;" vertex="1" parent="XOTfRUJzOYHc899-o0_s-413">
          <mxGeometry x="20" y="15" width="10" height="30" as="geometry" />
        </mxCell>
        <mxCell id="XOTfRUJzOYHc899-o0_s-416" value="" style="group" vertex="1" connectable="0" parent="1">
          <mxGeometry x="70" y="-280" width="320" height="60" as="geometry" />
        </mxCell>
        <object label="Grademan" nodeType="labour" labourType="skilled" baseHourlyRate="60" description="Grademan" id="XOTfRUJzOYHc899-o0_s-417">
          <mxCell style="rounded=1;whiteSpace=wrap;html=1;fillColor=#cdeb8b;strokeColor=#36393d;fontStyle=1;spacingLeft=50;" vertex="1" parent="XOTfRUJzOYHc899-o0_s-416">
            <mxGeometry width="320" height="60" as="geometry" />
          </mxCell>
        </object>
        <mxCell id="XOTfRUJzOYHc899-o0_s-418" value="" style="shape=mxgraph.signs.people.man_2;html=1;pointerEvents=1;fillColor=#000000;strokeColor=none;verticalLabelPosition=bottom;verticalAlign=top;align=center;sketch=0;" vertex="1" parent="XOTfRUJzOYHc899-o0_s-416">
          <mxGeometry x="20" y="15" width="10" height="30" as="geometry" />
        </mxCell>
        <mxCell id="XOTfRUJzOYHc899-o0_s-419" value="" style="group" vertex="1" connectable="0" parent="1">
          <mxGeometry x="410" y="-120" width="210" height="60" as="geometry" />
        </mxCell>
        <object label="ASSIGNED: Labourer" nodeType="assignedLabour" labourDefinition="Labourer" description="Labourer" id="XOTfRUJzOYHc899-o0_s-420">
          <mxCell style="rounded=1;whiteSpace=wrap;html=1;fillColor=#cdeb8b;strokeColor=#36393d;fontStyle=1;spacingLeft=50;" vertex="1" parent="XOTfRUJzOYHc899-o0_s-419">
            <mxGeometry width="210" height="60" as="geometry" />
          </mxCell>
        </object>
        <mxCell id="XOTfRUJzOYHc899-o0_s-421" value="" style="shape=mxgraph.signs.people.man_2;html=1;pointerEvents=1;fillColor=#000000;strokeColor=none;verticalLabelPosition=bottom;verticalAlign=top;align=center;sketch=0;" vertex="1" parent="XOTfRUJzOYHc899-o0_s-419">
          <mxGeometry x="20" y="15" width="10" height="30" as="geometry" />
        </mxCell>
        <mxCell id="XOTfRUJzOYHc899-o0_s-422" value="" style="group" vertex="1" connectable="0" parent="1">
          <mxGeometry x="410" y="-200" width="210" height="60" as="geometry" />
        </mxCell>
        <object label="ASSIGNED: Pipelayer" nodeType="assignedLabour" labourDefinition="Pipelayer" description="Pipelayer" id="XOTfRUJzOYHc899-o0_s-423">
          <mxCell style="rounded=1;whiteSpace=wrap;html=1;fillColor=#cdeb8b;strokeColor=#36393d;fontStyle=1;spacingLeft=50;" vertex="1" parent="XOTfRUJzOYHc899-o0_s-422">
            <mxGeometry width="210" height="60" as="geometry" />
          </mxCell>
        </object>
        <mxCell id="XOTfRUJzOYHc899-o0_s-424" value="" style="shape=mxgraph.signs.people.man_2;html=1;pointerEvents=1;fillColor=#000000;strokeColor=none;verticalLabelPosition=bottom;verticalAlign=top;align=center;sketch=0;" vertex="1" parent="XOTfRUJzOYHc899-o0_s-422">
          <mxGeometry x="20" y="15" width="10" height="30" as="geometry" />
        </mxCell>
        <mxCell id="XOTfRUJzOYHc899-o0_s-425" value="" style="group" vertex="1" connectable="0" parent="1">
          <mxGeometry x="410" y="-280" width="210" height="60" as="geometry" />
        </mxCell>
        <object label="ASSIGNED: Grademan" nodeType="assignedLabour" labourDefinition="Grademan" description="Grademan" id="XOTfRUJzOYHc899-o0_s-426">
          <mxCell style="rounded=1;whiteSpace=wrap;html=1;fillColor=#cdeb8b;strokeColor=#36393d;fontStyle=1;spacingLeft=50;" vertex="1" parent="XOTfRUJzOYHc899-o0_s-425">
            <mxGeometry width="210" height="60" as="geometry" />
          </mxCell>
        </object>
        <mxCell id="XOTfRUJzOYHc899-o0_s-427" value="" style="shape=mxgraph.signs.people.man_2;html=1;pointerEvents=1;fillColor=#000000;strokeColor=none;verticalLabelPosition=bottom;verticalAlign=top;align=center;sketch=0;" vertex="1" parent="XOTfRUJzOYHc899-o0_s-425">
          <mxGeometry x="20" y="15" width="10" height="30" as="geometry" />
        </mxCell>
        <mxCell id="XOTfRUJzOYHc899-o0_s-428" value="" style="group" vertex="1" connectable="0" parent="1">
          <mxGeometry x="410" y="-360" width="210" height="60" as="geometry" />
        </mxCell>
        <object label="ASSIGNED: Equipment Operator" nodeType="assignedLabour" labourDefinition="Equipment Operator" description="Equipment Operator" id="XOTfRUJzOYHc899-o0_s-429">
          <mxCell style="rounded=1;whiteSpace=wrap;html=1;fillColor=#cdeb8b;strokeColor=#36393d;fontStyle=1;spacingLeft=50;" vertex="1" parent="XOTfRUJzOYHc899-o0_s-428">
            <mxGeometry width="210" height="60" as="geometry" />
          </mxCell>
        </object>
        <mxCell id="XOTfRUJzOYHc899-o0_s-430" value="" style="shape=mxgraph.signs.people.man_2;html=1;pointerEvents=1;fillColor=#000000;strokeColor=none;verticalLabelPosition=bottom;verticalAlign=top;align=center;sketch=0;" vertex="1" parent="XOTfRUJzOYHc899-o0_s-428">
          <mxGeometry x="20" y="15" width="10" height="30" as="geometry" />
        </mxCell>
        <mxCell id="XOTfRUJzOYHc899-o0_s-431" value="" style="group" vertex="1" connectable="0" parent="1">
          <mxGeometry x="2130" y="-210" width="210" height="60" as="geometry" />
        </mxCell>
        <object label="ASSIGNED: Equipment Operator" nodeType="assignedLabour" labourDefinition="Equipment Operator" description="Equipment Operator" id="XOTfRUJzOYHc899-o0_s-432">
          <mxCell style="rounded=1;whiteSpace=wrap;html=1;fillColor=#cdeb8b;strokeColor=#36393d;fontStyle=1;spacingLeft=50;" vertex="1" parent="XOTfRUJzOYHc899-o0_s-431">
            <mxGeometry width="210" height="60" as="geometry" />
          </mxCell>
        </object>
        <mxCell id="XOTfRUJzOYHc899-o0_s-433" value="" style="shape=mxgraph.signs.people.man_2;html=1;pointerEvents=1;fillColor=#000000;strokeColor=none;verticalLabelPosition=bottom;verticalAlign=top;align=center;sketch=0;" vertex="1" parent="XOTfRUJzOYHc899-o0_s-431">
          <mxGeometry x="20" y="15" width="10" height="30" as="geometry" />
        </mxCell>
        <mxCell id="XOTfRUJzOYHc899-o0_s-434" value="" style="group" vertex="1" connectable="0" parent="1">
          <mxGeometry x="1910" y="-320" width="320" height="60" as="geometry" />
        </mxCell>
        <object label="CREW: Bulk Common Ex Crew" nodeType="crew" crewType="Bulk Common Ex Crew" description="Bulk Common Ex Crew" id="XOTfRUJzOYHc899-o0_s-435">
          <mxCell style="rounded=1;whiteSpace=wrap;html=1;fillColor=#ffcc99;strokeColor=#36393d;fontStyle=1;spacingLeft=50;" vertex="1" parent="XOTfRUJzOYHc899-o0_s-434">
            <mxGeometry width="320" height="60" as="geometry" />
          </mxCell>
        </object>
        <mxCell id="XOTfRUJzOYHc899-o0_s-436" value="" style="shape=mxgraph.signs.people.man_2;html=1;pointerEvents=1;fillColor=#000000;strokeColor=none;verticalLabelPosition=bottom;verticalAlign=top;align=center;sketch=0;" vertex="1" parent="XOTfRUJzOYHc899-o0_s-434">
          <mxGeometry x="30" y="25" width="10" height="20" as="geometry" />
        </mxCell>
        <mxCell id="XOTfRUJzOYHc899-o0_s-437" value="" style="shape=mxgraph.signs.sports.rv;html=1;pointerEvents=1;fillColor=#000000;strokeColor=none;verticalLabelPosition=bottom;verticalAlign=top;align=center;sketch=0;" vertex="1" parent="XOTfRUJzOYHc899-o0_s-434">
          <mxGeometry x="10" y="30" width="20" height="20" as="geometry" />
        </mxCell>
        <mxCell id="XOTfRUJzOYHc899-o0_s-438" value="" style="shape=mxgraph.signs.transportation.forklift;html=1;pointerEvents=1;fillColor=#000000;strokeColor=none;verticalLabelPosition=bottom;verticalAlign=top;align=center;sketch=0;" vertex="1" parent="XOTfRUJzOYHc899-o0_s-434">
          <mxGeometry x="10" y="10" width="20" height="15" as="geometry" />
        </mxCell>
        <mxCell id="XOTfRUJzOYHc899-o0_s-444" style="edgeStyle=orthogonalEdgeStyle;rounded=0;orthogonalLoop=1;jettySize=auto;html=1;exitX=0.5;exitY=1;exitDx=0;exitDy=0;entryX=0;entryY=0.5;entryDx=0;entryDy=0;" edge="1" parent="1" source="XOTfRUJzOYHc899-o0_s-435" target="XOTfRUJzOYHc899-o0_s-432">
          <mxGeometry relative="1" as="geometry" />
        </mxCell>
        <mxCell id="XOTfRUJzOYHc899-o0_s-445" value="" style="group" vertex="1" connectable="0" parent="1">
          <mxGeometry x="660" y="-120" width="320" height="60" as="geometry" />
        </mxCell>
        <object label="John Deere 290G Excavator" nodeType="equipment" baseHourlyRate="130" baseDayRate="" baseWeeklyRate="" baseMonthlyRate="" equipmentType="excavator" idleFuelConsumptionPerDay="" idleFuelConsumptionPerHour="" workingFuelConsumptionPerHour="" workingFuelConsumptionPerDay="" description="John Deere 290G Excavator" id="XOTfRUJzOYHc899-o0_s-446">
          <mxCell style="rounded=1;whiteSpace=wrap;html=1;fillColor=#ffff88;strokeColor=#36393d;fontStyle=1;spacingLeft=50;" vertex="1" parent="XOTfRUJzOYHc899-o0_s-445">
            <mxGeometry width="320" height="60" as="geometry" />
          </mxCell>
        </object>
        <mxCell id="XOTfRUJzOYHc899-o0_s-447" value="" style="shape=mxgraph.signs.transportation.forklift;html=1;pointerEvents=1;fillColor=#000000;strokeColor=none;verticalLabelPosition=bottom;verticalAlign=top;align=center;sketch=0;" vertex="1" parent="XOTfRUJzOYHc899-o0_s-445">
          <mxGeometry x="8" y="15" width="30" height="30" as="geometry" />
        </mxCell>
        <mxCell id="XOTfRUJzOYHc899-o0_s-448" value="" style="group" vertex="1" connectable="0" parent="1">
          <mxGeometry x="660" y="-200" width="320" height="60" as="geometry" />
        </mxCell>
        <object label="John Deere 245G Excavator" nodeType="equipment" baseHourlyRate="110" baseDayRate="" baseWeeklyRate="" baseMonthlyRate="" equipmentType="excavator" idleFuelConsumptionPerDay="" idleFuelConsumptionPerHour="" workingFuelConsumptionPerHour="" workingFuelConsumptionPerDay="" description="John Deere 245G Excavator" id="XOTfRUJzOYHc899-o0_s-449">
          <mxCell style="rounded=1;whiteSpace=wrap;html=1;fillColor=#ffff88;strokeColor=#36393d;fontStyle=1;spacingLeft=50;" vertex="1" parent="XOTfRUJzOYHc899-o0_s-448">
            <mxGeometry width="320" height="60" as="geometry" />
          </mxCell>
        </object>
        <mxCell id="XOTfRUJzOYHc899-o0_s-450" value="" style="shape=mxgraph.signs.transportation.forklift;html=1;pointerEvents=1;fillColor=#000000;strokeColor=none;verticalLabelPosition=bottom;verticalAlign=top;align=center;sketch=0;" vertex="1" parent="XOTfRUJzOYHc899-o0_s-448">
          <mxGeometry x="8" y="15" width="30" height="30" as="geometry" />
        </mxCell>
        <mxCell id="XOTfRUJzOYHc899-o0_s-451" value="" style="group" vertex="1" connectable="0" parent="1">
          <mxGeometry x="660" y="-280" width="320" height="60" as="geometry" />
        </mxCell>
        <object label="John Deere 135G Excavator" nodeType="equipment" baseHourlyRate="65" baseDayRate="" baseWeeklyRate="" baseMonthlyRate="" equipmentType="excavator" idleFuelConsumptionPerDay="" idleFuelConsumptionPerHour="" workingFuelConsumptionPerHour="" workingFuelConsumptionPerDay="" description="John Deere 135G Excavator" id="XOTfRUJzOYHc899-o0_s-452">
          <mxCell style="rounded=1;whiteSpace=wrap;html=1;fillColor=#ffff88;strokeColor=#36393d;fontStyle=1;spacingLeft=50;" vertex="1" parent="XOTfRUJzOYHc899-o0_s-451">
            <mxGeometry width="320" height="60" as="geometry" />
          </mxCell>
        </object>
        <mxCell id="XOTfRUJzOYHc899-o0_s-453" value="" style="shape=mxgraph.signs.transportation.forklift;html=1;pointerEvents=1;fillColor=#000000;strokeColor=none;verticalLabelPosition=bottom;verticalAlign=top;align=center;sketch=0;" vertex="1" parent="XOTfRUJzOYHc899-o0_s-451">
          <mxGeometry x="8" y="15" width="30" height="30" as="geometry" />
        </mxCell>
        <mxCell id="XOTfRUJzOYHc899-o0_s-454" value="" style="group" vertex="1" connectable="0" parent="1">
          <mxGeometry x="660" y="-360" width="320" height="60" as="geometry" />
        </mxCell>
        <object label="Bobcat T190 Skidsteer" nodeType="equipment" baseHourlyRate="45" baseDayRate="" baseWeeklyRate="" baseMonthlyRate="" equipmentType="skidsteer" idleFuelConsumptionPerDay="" idleFuelConsumptionPerHour="" workingFuelConsumptionPerHour="" workingFuelConsumptionPerDay="" description="Bobcat T190 Skidsteer" id="XOTfRUJzOYHc899-o0_s-455">
          <mxCell style="rounded=1;whiteSpace=wrap;html=1;fillColor=#ffff88;strokeColor=#36393d;fontStyle=1;spacingLeft=50;" vertex="1" parent="XOTfRUJzOYHc899-o0_s-454">
            <mxGeometry width="320" height="60" as="geometry" />
          </mxCell>
        </object>
        <mxCell id="XOTfRUJzOYHc899-o0_s-456" value="" style="shape=mxgraph.signs.transportation.forklift;html=1;pointerEvents=1;fillColor=#000000;strokeColor=none;verticalLabelPosition=bottom;verticalAlign=top;align=center;sketch=0;" vertex="1" parent="XOTfRUJzOYHc899-o0_s-454">
          <mxGeometry x="8" y="15" width="30" height="30" as="geometry" />
        </mxCell>
        <mxCell id="XOTfRUJzOYHc899-o0_s-457" value="" style="group" vertex="1" connectable="0" parent="1">
          <mxGeometry x="1010" y="-360" width="210" height="60" as="geometry" />
        </mxCell>
        <object label="ASSIGNED: Bobcat T190 Skidsteer" nodeType="assignedEquipment" equipmentDefinition="Bobcat T190 Skidsteer" description="Bobcat T190 Skidsteer" id="XOTfRUJzOYHc899-o0_s-458">
          <mxCell style="rounded=1;whiteSpace=wrap;html=1;fillColor=#ffff88;strokeColor=#36393d;fontStyle=1;spacingLeft=50;" vertex="1" parent="XOTfRUJzOYHc899-o0_s-457">
            <mxGeometry width="210" height="60" as="geometry" />
          </mxCell>
        </object>
        <mxCell id="XOTfRUJzOYHc899-o0_s-459" value="" style="shape=mxgraph.signs.transportation.forklift;html=1;pointerEvents=1;fillColor=#000000;strokeColor=none;verticalLabelPosition=bottom;verticalAlign=top;align=center;sketch=0;" vertex="1" parent="XOTfRUJzOYHc899-o0_s-457">
          <mxGeometry x="10" y="15" width="30" height="30" as="geometry" />
        </mxCell>
        <mxCell id="XOTfRUJzOYHc899-o0_s-460" value="" style="group" vertex="1" connectable="0" parent="1">
          <mxGeometry x="1010" y="-280" width="210" height="60" as="geometry" />
        </mxCell>
        <object label="ASSIGNED: John Deere 135G Excavator" nodeType="assignedEquipment" equipmentDefinition="John Deere 135G Excavator" description="John Deere 135G Excavator" id="XOTfRUJzOYHc899-o0_s-461">
          <mxCell style="rounded=1;whiteSpace=wrap;html=1;fillColor=#ffff88;strokeColor=#36393d;fontStyle=1;spacingLeft=50;" vertex="1" parent="XOTfRUJzOYHc899-o0_s-460">
            <mxGeometry width="210" height="60" as="geometry" />
          </mxCell>
        </object>
        <mxCell id="XOTfRUJzOYHc899-o0_s-462" value="" style="shape=mxgraph.signs.transportation.forklift;html=1;pointerEvents=1;fillColor=#000000;strokeColor=none;verticalLabelPosition=bottom;verticalAlign=top;align=center;sketch=0;" vertex="1" parent="XOTfRUJzOYHc899-o0_s-460">
          <mxGeometry x="10" y="15" width="30" height="30" as="geometry" />
        </mxCell>
        <mxCell id="XOTfRUJzOYHc899-o0_s-463" value="" style="group" vertex="1" connectable="0" parent="1">
          <mxGeometry x="1010" y="-200" width="210" height="60" as="geometry" />
        </mxCell>
        <object label="ASSIGNED: John Deere 245G Excavator" nodeType="assignedEquipment" equipmentDefinition="John Deere 245G Excavator" description="John Deere 245G Excavator" id="XOTfRUJzOYHc899-o0_s-464">
          <mxCell style="rounded=1;whiteSpace=wrap;html=1;fillColor=#ffff88;strokeColor=#36393d;fontStyle=1;spacingLeft=50;" vertex="1" parent="XOTfRUJzOYHc899-o0_s-463">
            <mxGeometry width="210" height="60" as="geometry" />
          </mxCell>
        </object>
        <mxCell id="XOTfRUJzOYHc899-o0_s-465" value="" style="shape=mxgraph.signs.transportation.forklift;html=1;pointerEvents=1;fillColor=#000000;strokeColor=none;verticalLabelPosition=bottom;verticalAlign=top;align=center;sketch=0;" vertex="1" parent="XOTfRUJzOYHc899-o0_s-463">
          <mxGeometry x="10" y="15" width="30" height="30" as="geometry" />
        </mxCell>
        <mxCell id="XOTfRUJzOYHc899-o0_s-466" value="" style="group" vertex="1" connectable="0" parent="1">
          <mxGeometry x="1010" y="-120" width="210" height="60" as="geometry" />
        </mxCell>
        <object label="ASSIGNED: John Deere 290G Excavator" nodeType="assignedEquipment" equipmentDefinition="John Deere 290G Excavator" description="John Deere 290G Excavator" id="XOTfRUJzOYHc899-o0_s-467">
          <mxCell style="rounded=1;whiteSpace=wrap;html=1;fillColor=#ffff88;strokeColor=#36393d;fontStyle=1;spacingLeft=50;" vertex="1" parent="XOTfRUJzOYHc899-o0_s-466">
            <mxGeometry width="210" height="60" as="geometry" />
          </mxCell>
        </object>
        <mxCell id="XOTfRUJzOYHc899-o0_s-468" value="" style="shape=mxgraph.signs.transportation.forklift;html=1;pointerEvents=1;fillColor=#000000;strokeColor=none;verticalLabelPosition=bottom;verticalAlign=top;align=center;sketch=0;" vertex="1" parent="XOTfRUJzOYHc899-o0_s-466">
          <mxGeometry x="10" y="15" width="30" height="30" as="geometry" />
        </mxCell>
        <mxCell id="XOTfRUJzOYHc899-o0_s-469" value="" style="group" vertex="1" connectable="0" parent="1">
          <mxGeometry x="2130" y="-130" width="210" height="60" as="geometry" />
        </mxCell>
        <object label="ASSIGNED: John Deere 290G Excavator" nodeType="assignedEquipment" equipmentDefinition="John Deere 290G Excavator" description="John Deere 290G Excavator" id="XOTfRUJzOYHc899-o0_s-470">
          <mxCell style="rounded=1;whiteSpace=wrap;html=1;fillColor=#ffff88;strokeColor=#36393d;fontStyle=1;spacingLeft=50;" vertex="1" parent="XOTfRUJzOYHc899-o0_s-469">
            <mxGeometry width="210" height="60" as="geometry" />
          </mxCell>
        </object>
        <mxCell id="XOTfRUJzOYHc899-o0_s-471" value="" style="shape=mxgraph.signs.transportation.forklift;html=1;pointerEvents=1;fillColor=#000000;strokeColor=none;verticalLabelPosition=bottom;verticalAlign=top;align=center;sketch=0;" vertex="1" parent="XOTfRUJzOYHc899-o0_s-469">
          <mxGeometry x="10" y="15" width="30" height="30" as="geometry" />
        </mxCell>
        <mxCell id="XOTfRUJzOYHc899-o0_s-472" style="edgeStyle=orthogonalEdgeStyle;rounded=0;orthogonalLoop=1;jettySize=auto;html=1;exitX=0.5;exitY=1;exitDx=0;exitDy=0;entryX=0;entryY=0.5;entryDx=0;entryDy=0;" edge="1" parent="1" source="XOTfRUJzOYHc899-o0_s-435" target="XOTfRUJzOYHc899-o0_s-470">
          <mxGeometry relative="1" as="geometry" />
        </mxCell>
        <mxCell id="XOTfRUJzOYHc899-o0_s-473" value="" style="group" vertex="1" connectable="0" parent="1">
          <mxGeometry x="1680" y="-320" width="210" height="60" as="geometry" />
        </mxCell>
        <object label="ASSIGNED: Bulk Common Ex Crew" nodeType="assignedCrew" crewDefinition="Bulk Common Ex Crew" description="Bulk Common Ex Crew" id="XOTfRUJzOYHc899-o0_s-474">
          <mxCell style="rounded=1;whiteSpace=wrap;html=1;fillColor=#ffcc99;strokeColor=#36393d;fontStyle=1;spacingLeft=50;" vertex="1" parent="XOTfRUJzOYHc899-o0_s-473">
            <mxGeometry width="210" height="60" as="geometry" />
          </mxCell>
        </object>
        <mxCell id="XOTfRUJzOYHc899-o0_s-475" value="" style="shape=mxgraph.signs.people.man_2;html=1;pointerEvents=1;fillColor=#000000;strokeColor=none;verticalLabelPosition=bottom;verticalAlign=top;align=center;sketch=0;" vertex="1" parent="XOTfRUJzOYHc899-o0_s-473">
          <mxGeometry x="30" y="25" width="10" height="20" as="geometry" />
        </mxCell>
        <mxCell id="XOTfRUJzOYHc899-o0_s-476" value="" style="shape=mxgraph.signs.sports.rv;html=1;pointerEvents=1;fillColor=#000000;strokeColor=none;verticalLabelPosition=bottom;verticalAlign=top;align=center;sketch=0;" vertex="1" parent="XOTfRUJzOYHc899-o0_s-473">
          <mxGeometry x="10" y="30" width="20" height="20" as="geometry" />
        </mxCell>
        <mxCell id="XOTfRUJzOYHc899-o0_s-477" value="" style="shape=mxgraph.signs.transportation.forklift;html=1;pointerEvents=1;fillColor=#000000;strokeColor=none;verticalLabelPosition=bottom;verticalAlign=top;align=center;sketch=0;" vertex="1" parent="XOTfRUJzOYHc899-o0_s-473">
          <mxGeometry x="10" y="10" width="20" height="15" as="geometry" />
        </mxCell>
        <mxCell id="XOTfRUJzOYHc899-o0_s-486" value="" style="group" vertex="1" connectable="0" parent="1">
          <mxGeometry x="1130" y="570" width="320" height="60" as="geometry" />
        </mxCell>
        <object label="1.0 Mobilization" nodeType="bidItem" itemNumber="1.0" estQuantity="1" units="LS" takeoffQuantity="1" description="Mobilization" id="XOTfRUJzOYHc899-o0_s-487">
          <mxCell style="rounded=1;whiteSpace=wrap;html=1;fillColor=#fff2cc;strokeColor=#d6b656;fontStyle=1;spacingLeft=50;" vertex="1" parent="XOTfRUJzOYHc899-o0_s-486">
            <mxGeometry width="320" height="60" as="geometry" />
          </mxCell>
        </object>
        <mxCell id="XOTfRUJzOYHc899-o0_s-488" value="" style="verticalLabelPosition=bottom;verticalAlign=top;html=1;shape=mxgraph.basic.rect;fillColor2=none;strokeWidth=1;size=20;indent=5;fillColor=none;" vertex="1" parent="XOTfRUJzOYHc899-o0_s-486">
          <mxGeometry x="10" y="25" width="40" height="10" as="geometry" />
        </mxCell>
        <mxCell id="XOTfRUJzOYHc899-o0_s-489" value="" style="shape=mxgraph.signs.travel.cashier;html=1;pointerEvents=1;fillColor=#000000;strokeColor=none;verticalLabelPosition=bottom;verticalAlign=top;align=center;sketch=0;" vertex="1" parent="XOTfRUJzOYHc899-o0_s-486">
          <mxGeometry x="10" y="25" width="10" height="10" as="geometry" />
        </mxCell>
        <mxCell id="XOTfRUJzOYHc899-o0_s-490" style="edgeStyle=orthogonalEdgeStyle;rounded=0;orthogonalLoop=1;jettySize=auto;html=1;exitX=0.5;exitY=1;exitDx=0;exitDy=0;entryX=0;entryY=0.5;entryDx=0;entryDy=0;" edge="1" parent="1" source="XOTfRUJzOYHc899-o0_s-218" target="XOTfRUJzOYHc899-o0_s-487">
          <mxGeometry relative="1" as="geometry" />
        </mxCell>
        <mxCell id="XOTfRUJzOYHc899-o0_s-491" value="" style="group" vertex="1" connectable="0" parent="1">
          <mxGeometry x="1370" y="690" width="320" height="60" as="geometry" />
        </mxCell>
        <object label="Site Setup" nodeType="activity" activityType="general" productionQuantity="1" productionRate="" productionQuantityUnits="day" productionRateUnits="hr/day" productionDurationHours="9" description="Site Setup" productionDurationPerUnit="9" id="XOTfRUJzOYHc899-o0_s-492">
          <mxCell style="rounded=1;whiteSpace=wrap;html=1;fillColor=#CC99FF;strokeColor=#9673a6;fontStyle=1;spacingLeft=50;" vertex="1" parent="XOTfRUJzOYHc899-o0_s-491">
            <mxGeometry width="320" height="60" as="geometry" />
          </mxCell>
        </object>
        <mxCell id="XOTfRUJzOYHc899-o0_s-493" value="" style="shape=mxgraph.signs.sports.rock_collection;html=1;pointerEvents=1;fillColor=#000000;strokeColor=none;verticalLabelPosition=bottom;verticalAlign=top;align=center;sketch=0;" vertex="1" parent="XOTfRUJzOYHc899-o0_s-491">
          <mxGeometry x="10" y="15" width="30" height="30" as="geometry" />
        </mxCell>
        <mxCell id="XOTfRUJzOYHc899-o0_s-494" style="edgeStyle=orthogonalEdgeStyle;rounded=0;orthogonalLoop=1;jettySize=auto;html=1;exitX=0.5;exitY=1;exitDx=0;exitDy=0;entryX=0;entryY=0.5;entryDx=0;entryDy=0;" edge="1" parent="1" source="XOTfRUJzOYHc899-o0_s-487" target="XOTfRUJzOYHc899-o0_s-492">
          <mxGeometry relative="1" as="geometry" />
        </mxCell>
        <mxCell id="XOTfRUJzOYHc899-o0_s-495" value="" style="group" vertex="1" connectable="0" parent="1">
          <mxGeometry x="1900" y="-930" width="320" height="60" as="geometry" />
        </mxCell>
        <object label="CREW: Site Setup Crew" nodeType="crew" crewType="general" description="Site Setup Crew" id="XOTfRUJzOYHc899-o0_s-496">
          <mxCell style="rounded=1;whiteSpace=wrap;html=1;fillColor=#ffcc99;strokeColor=#36393d;fontStyle=1;spacingLeft=50;" vertex="1" parent="XOTfRUJzOYHc899-o0_s-495">
            <mxGeometry width="320" height="60" as="geometry" />
          </mxCell>
        </object>
        <mxCell id="XOTfRUJzOYHc899-o0_s-497" value="" style="shape=mxgraph.signs.people.man_2;html=1;pointerEvents=1;fillColor=#000000;strokeColor=none;verticalLabelPosition=bottom;verticalAlign=top;align=center;sketch=0;" vertex="1" parent="XOTfRUJzOYHc899-o0_s-495">
          <mxGeometry x="30" y="25" width="10" height="20" as="geometry" />
        </mxCell>
        <mxCell id="XOTfRUJzOYHc899-o0_s-498" value="" style="shape=mxgraph.signs.sports.rv;html=1;pointerEvents=1;fillColor=#000000;strokeColor=none;verticalLabelPosition=bottom;verticalAlign=top;align=center;sketch=0;" vertex="1" parent="XOTfRUJzOYHc899-o0_s-495">
          <mxGeometry x="10" y="30" width="20" height="20" as="geometry" />
        </mxCell>
        <mxCell id="XOTfRUJzOYHc899-o0_s-499" value="" style="shape=mxgraph.signs.transportation.forklift;html=1;pointerEvents=1;fillColor=#000000;strokeColor=none;verticalLabelPosition=bottom;verticalAlign=top;align=center;sketch=0;" vertex="1" parent="XOTfRUJzOYHc899-o0_s-495">
          <mxGeometry x="10" y="10" width="20" height="15" as="geometry" />
        </mxCell>
        <mxCell id="XOTfRUJzOYHc899-o0_s-500" value="" style="group" vertex="1" connectable="0" parent="1">
          <mxGeometry x="1660" y="-930" width="210" height="60" as="geometry" />
        </mxCell>
        <object label="ASSIGNED: Site Setup Crew" nodeType="assignedCrew" crewDefinition="Site Setup Crew" description="Site Setup Crew" id="XOTfRUJzOYHc899-o0_s-501">
          <mxCell style="rounded=1;whiteSpace=wrap;html=1;fillColor=#ffcc99;strokeColor=#36393d;fontStyle=1;spacingLeft=50;" vertex="1" parent="XOTfRUJzOYHc899-o0_s-500">
            <mxGeometry width="210" height="60" as="geometry" />
          </mxCell>
        </object>
        <mxCell id="XOTfRUJzOYHc899-o0_s-502" value="" style="shape=mxgraph.signs.people.man_2;html=1;pointerEvents=1;fillColor=#000000;strokeColor=none;verticalLabelPosition=bottom;verticalAlign=top;align=center;sketch=0;" vertex="1" parent="XOTfRUJzOYHc899-o0_s-500">
          <mxGeometry x="30" y="25" width="10" height="20" as="geometry" />
        </mxCell>
        <mxCell id="XOTfRUJzOYHc899-o0_s-503" value="" style="shape=mxgraph.signs.sports.rv;html=1;pointerEvents=1;fillColor=#000000;strokeColor=none;verticalLabelPosition=bottom;verticalAlign=top;align=center;sketch=0;" vertex="1" parent="XOTfRUJzOYHc899-o0_s-500">
          <mxGeometry x="10" y="30" width="20" height="20" as="geometry" />
        </mxCell>
        <mxCell id="XOTfRUJzOYHc899-o0_s-504" value="" style="shape=mxgraph.signs.transportation.forklift;html=1;pointerEvents=1;fillColor=#000000;strokeColor=none;verticalLabelPosition=bottom;verticalAlign=top;align=center;sketch=0;" vertex="1" parent="XOTfRUJzOYHc899-o0_s-500">
          <mxGeometry x="10" y="10" width="20" height="15" as="geometry" />
        </mxCell>
        <mxCell id="XOTfRUJzOYHc899-o0_s-505" value="" style="group" vertex="1" connectable="0" parent="1">
          <mxGeometry x="2120" y="-840" width="210" height="60" as="geometry" />
        </mxCell>
        <object label="ASSIGNED: Labourer" nodeType="assignedLabour" labourDefinition="Labourer" description="Labourer" id="XOTfRUJzOYHc899-o0_s-506">
          <mxCell style="rounded=1;whiteSpace=wrap;html=1;fillColor=#cdeb8b;strokeColor=#36393d;fontStyle=1;spacingLeft=50;" vertex="1" parent="XOTfRUJzOYHc899-o0_s-505">
            <mxGeometry width="210" height="60" as="geometry" />
          </mxCell>
        </object>
        <mxCell id="XOTfRUJzOYHc899-o0_s-507" value="" style="shape=mxgraph.signs.people.man_2;html=1;pointerEvents=1;fillColor=#000000;strokeColor=none;verticalLabelPosition=bottom;verticalAlign=top;align=center;sketch=0;" vertex="1" parent="XOTfRUJzOYHc899-o0_s-505">
          <mxGeometry x="20" y="15" width="10" height="30" as="geometry" />
        </mxCell>
        <mxCell id="XOTfRUJzOYHc899-o0_s-508" value="" style="group" vertex="1" connectable="0" parent="1">
          <mxGeometry x="2120" y="-680" width="210" height="60" as="geometry" />
        </mxCell>
        <object label="ASSIGNED: Equipment Operator" nodeType="assignedLabour" labourDefinition="Equipment Operator" description="Equipment Operator" id="XOTfRUJzOYHc899-o0_s-509">
          <mxCell style="rounded=1;whiteSpace=wrap;html=1;fillColor=#cdeb8b;strokeColor=#36393d;fontStyle=1;spacingLeft=50;" vertex="1" parent="XOTfRUJzOYHc899-o0_s-508">
            <mxGeometry width="210" height="60" as="geometry" />
          </mxCell>
        </object>
        <mxCell id="XOTfRUJzOYHc899-o0_s-510" value="" style="shape=mxgraph.signs.people.man_2;html=1;pointerEvents=1;fillColor=#000000;strokeColor=none;verticalLabelPosition=bottom;verticalAlign=top;align=center;sketch=0;" vertex="1" parent="XOTfRUJzOYHc899-o0_s-508">
          <mxGeometry x="20" y="15" width="10" height="30" as="geometry" />
        </mxCell>
        <mxCell id="XOTfRUJzOYHc899-o0_s-511" value="" style="group" vertex="1" connectable="0" parent="1">
          <mxGeometry x="2120" y="-760" width="210" height="60" as="geometry" />
        </mxCell>
        <object label="ASSIGNED: Pipelayer" nodeType="assignedLabour" labourDefinition="Pipelayer" description="Pipelayer" id="XOTfRUJzOYHc899-o0_s-512">
          <mxCell style="rounded=1;whiteSpace=wrap;html=1;fillColor=#cdeb8b;strokeColor=#36393d;fontStyle=1;spacingLeft=50;" vertex="1" parent="XOTfRUJzOYHc899-o0_s-511">
            <mxGeometry width="210" height="60" as="geometry" />
          </mxCell>
        </object>
        <mxCell id="XOTfRUJzOYHc899-o0_s-513" value="" style="shape=mxgraph.signs.people.man_2;html=1;pointerEvents=1;fillColor=#000000;strokeColor=none;verticalLabelPosition=bottom;verticalAlign=top;align=center;sketch=0;" vertex="1" parent="XOTfRUJzOYHc899-o0_s-511">
          <mxGeometry x="20" y="15" width="10" height="30" as="geometry" />
        </mxCell>
        <mxCell id="XOTfRUJzOYHc899-o0_s-514" value="" style="group" vertex="1" connectable="0" parent="1">
          <mxGeometry x="2120" y="-600" width="210" height="60" as="geometry" />
        </mxCell>
        <object label="ASSIGNED: Bobcat T190 Skidsteer" nodeType="assignedEquipment" equipmentDefinition="Bobcat T190 Skidsteer" description="Bobcat T190 Skidsteer" id="XOTfRUJzOYHc899-o0_s-515">
          <mxCell style="rounded=1;whiteSpace=wrap;html=1;fillColor=#ffff88;strokeColor=#36393d;fontStyle=1;spacingLeft=50;" vertex="1" parent="XOTfRUJzOYHc899-o0_s-514">
            <mxGeometry width="210" height="60" as="geometry" />
          </mxCell>
        </object>
        <mxCell id="XOTfRUJzOYHc899-o0_s-516" value="" style="shape=mxgraph.signs.transportation.forklift;html=1;pointerEvents=1;fillColor=#000000;strokeColor=none;verticalLabelPosition=bottom;verticalAlign=top;align=center;sketch=0;" vertex="1" parent="XOTfRUJzOYHc899-o0_s-514">
          <mxGeometry x="10" y="15" width="30" height="30" as="geometry" />
        </mxCell>
        <mxCell id="XOTfRUJzOYHc899-o0_s-517" value="" style="group" vertex="1" connectable="0" parent="1">
          <mxGeometry x="70" y="-820" width="320" height="60" as="geometry" />
        </mxCell>
        <object label="VEHICLE: Ford F550 Tool Carrier" nodeType="vehicle" vehicleType="utility" baseHourlyRate="22.50" baseDayRate="190" baseWeeklyRate="" baseMonthlyRate="" baseFuelConsumptionPerHour="" baseFuelConsumptionPerDay="" description="Ford F550 Tool Carrier" id="XOTfRUJzOYHc899-o0_s-518">
          <mxCell style="rounded=1;whiteSpace=wrap;html=1;fillColor=#cce5ff;strokeColor=#36393d;fontStyle=1;spacingLeft=50;" vertex="1" parent="XOTfRUJzOYHc899-o0_s-517">
            <mxGeometry width="320" height="60" as="geometry" />
          </mxCell>
        </object>
        <mxCell id="XOTfRUJzOYHc899-o0_s-519" value="" style="shape=mxgraph.signs.sports.rv;html=1;pointerEvents=1;fillColor=#000000;strokeColor=none;verticalLabelPosition=bottom;verticalAlign=top;align=center;sketch=0;" vertex="1" parent="XOTfRUJzOYHc899-o0_s-517">
          <mxGeometry x="8" y="20" width="30" height="20" as="geometry" />
        </mxCell>
        <mxCell id="XOTfRUJzOYHc899-o0_s-520" value="" style="group" vertex="1" connectable="0" parent="1">
          <mxGeometry x="409.9999999999998" y="-820" width="210" height="60" as="geometry" />
        </mxCell>
        <object label="ASSIGNED: Ford F550 Tool Carrier" nodeType="assignedVehicle" vehicleDefinition="Ford F550 Tool Carrier" description="Ford F550 Tool Carrier" id="XOTfRUJzOYHc899-o0_s-521">
          <mxCell style="rounded=1;whiteSpace=wrap;html=1;fillColor=#cce5ff;strokeColor=#36393d;fontStyle=1;spacingLeft=50;" vertex="1" parent="XOTfRUJzOYHc899-o0_s-520">
            <mxGeometry width="210" height="60" as="geometry" />
          </mxCell>
        </object>
        <mxCell id="XOTfRUJzOYHc899-o0_s-522" value="" style="shape=mxgraph.signs.sports.rv;html=1;pointerEvents=1;fillColor=#000000;strokeColor=none;verticalLabelPosition=bottom;verticalAlign=top;align=center;sketch=0;" vertex="1" parent="XOTfRUJzOYHc899-o0_s-520">
          <mxGeometry x="10" y="20" width="30" height="20" as="geometry" />
        </mxCell>
        <mxCell id="XOTfRUJzOYHc899-o0_s-523" value="" style="group" vertex="1" connectable="0" parent="1">
          <mxGeometry x="2120" y="-520" width="210" height="60" as="geometry" />
        </mxCell>
        <object label="ASSIGNED: Ford F550 Tool Carrier" nodeType="assignedVehicle" vehicleDefinition="Ford F550 Tool Carrier" description="Ford F550 Tool Carrier" id="XOTfRUJzOYHc899-o0_s-524">
          <mxCell style="rounded=1;whiteSpace=wrap;html=1;fillColor=#cce5ff;strokeColor=#36393d;fontStyle=1;spacingLeft=50;" vertex="1" parent="XOTfRUJzOYHc899-o0_s-523">
            <mxGeometry width="210" height="60" as="geometry" />
          </mxCell>
        </object>
        <mxCell id="XOTfRUJzOYHc899-o0_s-525" value="" style="shape=mxgraph.signs.sports.rv;html=1;pointerEvents=1;fillColor=#000000;strokeColor=none;verticalLabelPosition=bottom;verticalAlign=top;align=center;sketch=0;" vertex="1" parent="XOTfRUJzOYHc899-o0_s-523">
          <mxGeometry x="10" y="20" width="30" height="20" as="geometry" />
        </mxCell>
        <mxCell id="XOTfRUJzOYHc899-o0_s-526" style="edgeStyle=orthogonalEdgeStyle;rounded=0;orthogonalLoop=1;jettySize=auto;html=1;exitX=0.5;exitY=1;exitDx=0;exitDy=0;entryX=0;entryY=0.5;entryDx=0;entryDy=0;" edge="1" parent="1" source="XOTfRUJzOYHc899-o0_s-496" target="XOTfRUJzOYHc899-o0_s-506">
          <mxGeometry relative="1" as="geometry" />
        </mxCell>
        <mxCell id="XOTfRUJzOYHc899-o0_s-527" style="edgeStyle=orthogonalEdgeStyle;rounded=0;orthogonalLoop=1;jettySize=auto;html=1;exitX=0.5;exitY=1;exitDx=0;exitDy=0;entryX=0;entryY=0.5;entryDx=0;entryDy=0;" edge="1" parent="1" source="XOTfRUJzOYHc899-o0_s-496" target="XOTfRUJzOYHc899-o0_s-512">
          <mxGeometry relative="1" as="geometry" />
        </mxCell>
        <mxCell id="XOTfRUJzOYHc899-o0_s-528" style="edgeStyle=orthogonalEdgeStyle;rounded=0;orthogonalLoop=1;jettySize=auto;html=1;exitX=0.5;exitY=1;exitDx=0;exitDy=0;entryX=0;entryY=0.5;entryDx=0;entryDy=0;" edge="1" parent="1" source="XOTfRUJzOYHc899-o0_s-496" target="XOTfRUJzOYHc899-o0_s-509">
          <mxGeometry relative="1" as="geometry" />
        </mxCell>
        <mxCell id="XOTfRUJzOYHc899-o0_s-529" style="edgeStyle=orthogonalEdgeStyle;rounded=0;orthogonalLoop=1;jettySize=auto;html=1;exitX=0.5;exitY=1;exitDx=0;exitDy=0;entryX=0;entryY=0.5;entryDx=0;entryDy=0;" edge="1" parent="1" source="XOTfRUJzOYHc899-o0_s-496" target="XOTfRUJzOYHc899-o0_s-515">
          <mxGeometry relative="1" as="geometry" />
        </mxCell>
        <mxCell id="XOTfRUJzOYHc899-o0_s-530" style="edgeStyle=orthogonalEdgeStyle;rounded=0;orthogonalLoop=1;jettySize=auto;html=1;exitX=0.5;exitY=1;exitDx=0;exitDy=0;entryX=0;entryY=0.5;entryDx=0;entryDy=0;" edge="1" parent="1" source="XOTfRUJzOYHc899-o0_s-496" target="XOTfRUJzOYHc899-o0_s-524">
          <mxGeometry relative="1" as="geometry" />
        </mxCell>
        <mxCell id="XOTfRUJzOYHc899-o0_s-531" value="" style="group" vertex="1" connectable="0" parent="1">
          <mxGeometry x="1590" y="810" width="210" height="60" as="geometry" />
        </mxCell>
        <object label="ASSIGNED: Site Setup Crew" nodeType="assignedCrew" crewDefinition="Site Setup Crew" description="Site Setup Crew" id="XOTfRUJzOYHc899-o0_s-532">
          <mxCell style="rounded=1;whiteSpace=wrap;html=1;fillColor=#ffcc99;strokeColor=#36393d;fontStyle=1;spacingLeft=50;" vertex="1" parent="XOTfRUJzOYHc899-o0_s-531">
            <mxGeometry width="210" height="60" as="geometry" />
          </mxCell>
        </object>
        <mxCell id="XOTfRUJzOYHc899-o0_s-533" value="" style="shape=mxgraph.signs.people.man_2;html=1;pointerEvents=1;fillColor=#000000;strokeColor=none;verticalLabelPosition=bottom;verticalAlign=top;align=center;sketch=0;" vertex="1" parent="XOTfRUJzOYHc899-o0_s-531">
          <mxGeometry x="30" y="25" width="10" height="20" as="geometry" />
        </mxCell>
        <mxCell id="XOTfRUJzOYHc899-o0_s-534" value="" style="shape=mxgraph.signs.sports.rv;html=1;pointerEvents=1;fillColor=#000000;strokeColor=none;verticalLabelPosition=bottom;verticalAlign=top;align=center;sketch=0;" vertex="1" parent="XOTfRUJzOYHc899-o0_s-531">
          <mxGeometry x="10" y="30" width="20" height="20" as="geometry" />
        </mxCell>
        <mxCell id="XOTfRUJzOYHc899-o0_s-535" value="" style="shape=mxgraph.signs.transportation.forklift;html=1;pointerEvents=1;fillColor=#000000;strokeColor=none;verticalLabelPosition=bottom;verticalAlign=top;align=center;sketch=0;" vertex="1" parent="XOTfRUJzOYHc899-o0_s-531">
          <mxGeometry x="10" y="10" width="20" height="15" as="geometry" />
        </mxCell>
        <mxCell id="XOTfRUJzOYHc899-o0_s-536" style="edgeStyle=orthogonalEdgeStyle;rounded=0;orthogonalLoop=1;jettySize=auto;html=1;exitX=0.5;exitY=1;exitDx=0;exitDy=0;entryX=0;entryY=0.5;entryDx=0;entryDy=0;" edge="1" parent="1" source="XOTfRUJzOYHc899-o0_s-492" target="XOTfRUJzOYHc899-o0_s-532">
          <mxGeometry relative="1" as="geometry" />
        </mxCell>
        <mxCell id="XOTfRUJzOYHc899-o0_s-540" value="" style="group" vertex="1" connectable="0" parent="1">
          <mxGeometry x="2090" y="500" width="320" height="60" as="geometry" />
        </mxCell>
        <object label="SITE FEATURE: Template" nodeType="siteFeature" activityType="" productionQuantity="" productionRate="" productionQuantityUnits="" productionRateUnits="" productionDurationHours="" description="" id="XOTfRUJzOYHc899-o0_s-541">
          <mxCell style="rounded=1;whiteSpace=wrap;html=1;fillColor=#FF99FF;strokeColor=#9673a6;fontStyle=1;spacingLeft=50;" vertex="1" parent="XOTfRUJzOYHc899-o0_s-540">
            <mxGeometry width="320" height="60" as="geometry" />
          </mxCell>
        </object>
        <mxCell id="XOTfRUJzOYHc899-o0_s-542" value="" style="shape=mxgraph.signs.travel.stairs;html=1;pointerEvents=1;fillColor=#000000;strokeColor=none;verticalLabelPosition=bottom;verticalAlign=top;align=center;sketch=0;" vertex="1" parent="XOTfRUJzOYHc899-o0_s-540">
          <mxGeometry x="6" y="17.5" width="34" height="25" as="geometry" />
        </mxCell>
      </root>
    </mxGraphModel>
  </diagram>
</mxfile>
